<svg width="15" height="15" viewBox="0 0 15 15" fill="none" xmlns="http://www.w3.org/2000/svg">
<path d="M8.5917 7.51051L14.7565 1.37942C15.0521 1.08685 15.0521 0.613222 14.7565 0.321396C14.4617 0.0288233 13.9828 0.0288233 13.688 0.321396L7.52852 6.44726L1.31204 0.230091C1.01722 -0.0654666 0.538373 -0.0654666 0.243562 0.230091C-0.0512499 0.526396 -0.0512499 1.00599 0.243562 1.30155L6.4555 7.51424L0.221109 13.7142C-0.0737029 14.0067 -0.0737029 14.4804 0.221109 14.7722C0.51592 15.0648 0.994771 15.0648 1.28958 14.7722L7.51869 8.57749L13.7104 14.77C14.0052 15.0655 14.4841 15.0655 14.7789 14.77C15.0737 14.4737 15.0737 13.9941 14.7789 13.6985L8.5917 7.51051Z" fill="#4A4A4A"/>
</svg>
