<svg width="872" height="349" viewBox="0 0 872 349" fill="none" xmlns="http://www.w3.org/2000/svg">
<path d="M8.28906 30H0.78125V28.8828L3.78906 25.8594C4.70573 24.9323 5.3099 24.2708 5.60156 23.875C5.89323 23.4792 6.11198 23.0938 6.25781 22.7188C6.40365 22.3438 6.47656 21.9401 6.47656 21.5078C6.47656 20.8984 6.29167 20.4167 5.92188 20.0625C5.55208 19.7031 5.03906 19.5234 4.38281 19.5234C3.90885 19.5234 3.45833 19.6016 3.03125 19.7578C2.60938 19.9141 2.13802 20.1979 1.61719 20.6094L0.929688 19.7266C1.98177 18.8516 3.1276 18.4141 4.36719 18.4141C5.4401 18.4141 6.28125 18.6901 6.89062 19.2422C7.5 19.7891 7.80469 20.526 7.80469 21.4531C7.80469 22.1771 7.60156 22.8932 7.19531 23.6016C6.78906 24.3099 6.02865 25.2057 4.91406 26.2891L2.41406 28.7344V28.7969H8.28906V30ZM17.9844 27.375H16.2891V30H15.0469V27.375H9.49219V26.2422L14.9141 18.5156H16.2891V26.1953H17.9844V27.375ZM15.0469 26.1953V22.3984C15.0469 21.6536 15.0729 20.8125 15.125 19.875H15.0625C14.8125 20.375 14.5781 20.7891 14.3594 21.1172L10.7891 26.1953H15.0469Z" fill="#626262"/>
<path d="M40.5508 327.023C38.9414 327.023 37.6758 327.594 36.7539 328.734C35.832 329.875 35.3711 331.449 35.3711 333.457C35.3711 335.559 35.8125 337.148 36.6953 338.227C37.5859 339.305 38.8711 339.844 40.5508 339.844C41.2773 339.844 41.9805 339.773 42.6602 339.633C43.3398 339.484 44.0469 339.297 44.7812 339.07V341.473C43.4375 341.98 41.9141 342.234 40.2109 342.234C37.7031 342.234 35.7773 341.477 34.4336 339.961C33.0898 338.438 32.418 336.262 32.418 333.434C32.418 331.652 32.7422 330.094 33.3906 328.758C34.0469 327.422 34.9922 326.398 36.2266 325.688C37.4609 324.977 38.9102 324.621 40.5742 324.621C42.3242 324.621 43.9414 324.988 45.4258 325.723L44.418 328.055C43.8398 327.781 43.2266 327.543 42.5781 327.34C41.9375 327.129 41.2617 327.023 40.5508 327.023ZM59.2891 324.645C60.9141 324.645 62.1992 325.02 63.1445 325.77C64.0898 326.512 64.5625 327.508 64.5625 328.758C64.5625 330.516 63.5078 331.914 61.3984 332.953C62.7422 333.625 63.6953 334.332 64.2578 335.074C64.8281 335.816 65.1133 336.645 65.1133 337.559C65.1133 338.973 64.5938 340.105 63.5547 340.957C62.5156 341.809 61.1094 342.234 59.3359 342.234C57.4766 342.234 56.0352 341.836 55.0117 341.039C53.9883 340.242 53.4766 339.113 53.4766 337.652C53.4766 336.699 53.7422 335.844 54.2734 335.086C54.8125 334.32 55.6914 333.641 56.9102 333.047C55.8633 332.422 55.1172 331.762 54.6719 331.066C54.2266 330.371 54.0039 329.59 54.0039 328.723C54.0039 327.48 54.4922 326.492 55.4688 325.758C56.4453 325.016 57.7188 324.645 59.2891 324.645ZM56.1133 337.559C56.1133 338.371 56.3984 339.004 56.9688 339.457C57.5391 339.902 58.3125 340.125 59.2891 340.125C60.2969 340.125 61.0781 339.895 61.6328 339.434C62.1953 338.965 62.4766 338.332 62.4766 337.535C62.4766 336.902 62.2188 336.324 61.7031 335.801C61.1875 335.277 60.4062 334.793 59.3594 334.348L59.0195 334.195C57.9883 334.648 57.2461 335.148 56.793 335.695C56.3398 336.234 56.1133 336.855 56.1133 337.559ZM59.2656 326.766C58.4844 326.766 57.8555 326.961 57.3789 327.352C56.9023 327.734 56.6641 328.258 56.6641 328.922C56.6641 329.328 56.75 329.691 56.9219 330.012C57.0938 330.332 57.3438 330.625 57.6719 330.891C58 331.148 58.5547 331.461 59.3359 331.828C60.2734 331.414 60.9336 330.98 61.3164 330.527C61.707 330.066 61.9023 329.531 61.9023 328.922C61.9023 328.258 61.6602 327.734 61.1758 327.352C60.6992 326.961 60.0625 326.766 59.2656 326.766ZM74.6992 342.234C73.0586 342.234 71.7852 341.645 70.8789 340.465H70.7148C70.8242 341.559 70.8789 342.223 70.8789 342.457V347.766H68.125V329.039H70.3516C70.4141 329.281 70.543 329.859 70.7383 330.773H70.8789C71.7383 329.461 73.0273 328.805 74.7461 328.805C76.3633 328.805 77.6211 329.391 78.5195 330.562C79.4258 331.734 79.8789 333.379 79.8789 335.496C79.8789 337.613 79.418 339.266 78.4961 340.453C77.582 341.641 76.3164 342.234 74.6992 342.234ZM74.0312 331.055C72.9375 331.055 72.1367 331.375 71.6289 332.016C71.1289 332.656 70.8789 333.68 70.8789 335.086V335.496C70.8789 337.074 71.1289 338.219 71.6289 338.93C72.1289 339.633 72.9453 339.984 74.0781 339.984C75.0312 339.984 75.7656 339.594 76.2812 338.812C76.7969 338.031 77.0547 336.918 77.0547 335.473C77.0547 334.02 76.7969 332.922 76.2812 332.18C75.7734 331.43 75.0234 331.055 74.0312 331.055ZM85.9609 335.379L81.6133 329.039H84.7539L87.707 333.574L90.6836 329.039H93.8008L89.4414 335.379L94.0234 342H90.9062L87.707 337.148L84.5195 342H81.4023L85.9609 335.379ZM107.758 342.234C105.797 342.234 104.305 341.664 103.281 340.523C102.266 339.375 101.758 337.73 101.758 335.59C101.758 333.41 102.289 331.734 103.352 330.562C104.422 329.391 105.965 328.805 107.98 328.805C109.348 328.805 110.578 329.059 111.672 329.566L110.84 331.781C109.676 331.328 108.715 331.102 107.957 331.102C105.715 331.102 104.594 332.59 104.594 335.566C104.594 337.02 104.871 338.113 105.426 338.848C105.988 339.574 106.809 339.938 107.887 339.938C109.113 339.938 110.273 339.633 111.367 339.023V341.426C110.875 341.715 110.348 341.922 109.785 342.047C109.23 342.172 108.555 342.234 107.758 342.234ZM120.074 342.234C118.059 342.234 116.48 341.648 115.34 340.477C114.207 339.297 113.641 337.676 113.641 335.613C113.641 333.496 114.168 331.832 115.223 330.621C116.277 329.41 117.727 328.805 119.57 328.805C121.281 328.805 122.633 329.324 123.625 330.363C124.617 331.402 125.113 332.832 125.113 334.652V336.141H116.477C116.516 337.398 116.855 338.367 117.496 339.047C118.137 339.719 119.039 340.055 120.203 340.055C120.969 340.055 121.68 339.984 122.336 339.844C123 339.695 123.711 339.453 124.469 339.117V341.355C123.797 341.676 123.117 341.902 122.43 342.035C121.742 342.168 120.957 342.234 120.074 342.234ZM119.57 330.891C118.695 330.891 117.992 331.168 117.461 331.723C116.938 332.277 116.625 333.086 116.523 334.148H122.406C122.391 333.078 122.133 332.27 121.633 331.723C121.133 331.168 120.445 330.891 119.57 330.891ZM137.98 329.039V331.195H133.762V342H130.996V331.195H126.777V329.039H137.98ZM148.516 329.039H151.539L146.184 335.285L151.996 342H148.832L143.23 335.426V342H140.477V329.039H143.23V335.332L148.516 329.039ZM165.637 335.496C165.637 337.613 165.094 339.266 164.008 340.453C162.922 341.641 161.41 342.234 159.473 342.234C158.262 342.234 157.191 341.961 156.262 341.414C155.332 340.867 154.617 340.082 154.117 339.059C153.617 338.035 153.367 336.848 153.367 335.496C153.367 333.395 153.906 331.754 154.984 330.574C156.062 329.395 157.582 328.805 159.543 328.805C161.418 328.805 162.902 329.41 163.996 330.621C165.09 331.824 165.637 333.449 165.637 335.496ZM156.203 335.496C156.203 338.488 157.309 339.984 159.52 339.984C161.707 339.984 162.801 338.488 162.801 335.496C162.801 332.535 161.699 331.055 159.496 331.055C158.34 331.055 157.5 331.438 156.977 332.203C156.461 332.969 156.203 334.066 156.203 335.496ZM171.449 329.039V335.684C171.449 336.457 171.387 337.594 171.262 339.094L177.766 329.039H181.129V342H178.48V335.473C178.48 335.113 178.5 334.531 178.539 333.727C178.586 332.922 178.625 332.336 178.656 331.969L172.176 342H168.812V329.039H171.449ZM174.883 327.457C173.227 327.457 172.012 327.16 171.238 326.566C170.473 325.965 170.047 324.965 169.961 323.566H172.457C172.504 324.129 172.609 324.566 172.773 324.879C172.945 325.191 173.188 325.418 173.5 325.559C173.82 325.691 174.305 325.758 174.953 325.758C175.719 325.758 176.301 325.59 176.699 325.254C177.098 324.91 177.34 324.348 177.426 323.566H179.969C179.852 324.91 179.379 325.895 178.551 326.52C177.723 327.145 176.5 327.457 174.883 327.457Z" fill="#626262"/>
<path d="M554.852 336.844C554.852 340.281 552.648 342 548.242 342H543.262V324.867H553.715V327.27H546.062V331.828H548.102C552.602 331.828 554.852 333.5 554.852 336.844ZM546.062 339.645H548.078C549.422 339.645 550.406 339.426 551.031 338.988C551.656 338.543 551.969 337.828 551.969 336.844C551.969 335.898 551.652 335.219 551.02 334.805C550.395 334.383 549.301 334.172 547.738 334.172H546.062V339.645ZM563.629 342.234C561.613 342.234 560.035 341.648 558.895 340.477C557.762 339.297 557.195 337.676 557.195 335.613C557.195 333.496 557.723 331.832 558.777 330.621C559.832 329.41 561.281 328.805 563.125 328.805C564.836 328.805 566.188 329.324 567.18 330.363C568.172 331.402 568.668 332.832 568.668 334.652V336.141H560.031C560.07 337.398 560.41 338.367 561.051 339.047C561.691 339.719 562.594 340.055 563.758 340.055C564.523 340.055 565.234 339.984 565.891 339.844C566.555 339.695 567.266 339.453 568.023 339.117V341.355C567.352 341.676 566.672 341.902 565.984 342.035C565.297 342.168 564.512 342.234 563.629 342.234ZM563.125 330.891C562.25 330.891 561.547 331.168 561.016 331.723C560.492 332.277 560.18 333.086 560.078 334.148H565.961C565.945 333.078 565.688 332.27 565.188 331.723C564.688 331.168 564 330.891 563.125 330.891ZM574.656 334.219C575.914 334.219 576.84 334.082 577.434 333.809C578.027 333.527 578.324 333.098 578.324 332.52C578.324 331.465 577.387 330.938 575.512 330.938C574.262 330.938 572.984 331.219 571.68 331.781L570.789 329.73C572.297 329.113 573.961 328.805 575.781 328.805C577.391 328.805 578.641 329.102 579.531 329.695C580.422 330.281 580.867 331.125 580.867 332.227C580.867 333.68 580.035 334.633 578.371 335.086V335.18C579.41 335.461 580.152 335.863 580.598 336.387C581.051 336.91 581.277 337.559 581.277 338.332C581.277 339.52 580.754 340.469 579.707 341.18C578.668 341.883 577.215 342.234 575.348 342.234C573.309 342.234 571.75 341.965 570.672 341.426V339.047C572.102 339.719 573.582 340.055 575.113 340.055C576.215 340.055 577.062 339.902 577.656 339.598C578.258 339.285 578.559 338.812 578.559 338.18C578.559 337.531 578.258 337.055 577.656 336.75C577.055 336.445 576.125 336.293 574.867 336.293H573.285V334.219H574.656ZM595.727 342.234C593.766 342.234 592.273 341.664 591.25 340.523C590.234 339.375 589.727 337.73 589.727 335.59C589.727 333.41 590.258 331.734 591.32 330.562C592.391 329.391 593.934 328.805 595.949 328.805C597.316 328.805 598.547 329.059 599.641 329.566L598.809 331.781C597.645 331.328 596.684 331.102 595.926 331.102C593.684 331.102 592.562 332.59 592.562 335.566C592.562 337.02 592.84 338.113 593.395 338.848C593.957 339.574 594.777 339.938 595.855 339.938C597.082 339.938 598.242 339.633 599.336 339.023V341.426C598.844 341.715 598.316 341.922 597.754 342.047C597.199 342.172 596.523 342.234 595.727 342.234ZM608.043 342.234C606.027 342.234 604.449 341.648 603.309 340.477C602.176 339.297 601.609 337.676 601.609 335.613C601.609 333.496 602.137 331.832 603.191 330.621C604.246 329.41 605.695 328.805 607.539 328.805C609.25 328.805 610.602 329.324 611.594 330.363C612.586 331.402 613.082 332.832 613.082 334.652V336.141H604.445C604.484 337.398 604.824 338.367 605.465 339.047C606.105 339.719 607.008 340.055 608.172 340.055C608.938 340.055 609.648 339.984 610.305 339.844C610.969 339.695 611.68 339.453 612.438 339.117V341.355C611.766 341.676 611.086 341.902 610.398 342.035C609.711 342.168 608.926 342.234 608.043 342.234ZM607.539 330.891C606.664 330.891 605.961 331.168 605.43 331.723C604.906 332.277 604.594 333.086 604.492 334.148H610.375C610.359 333.078 610.102 332.27 609.602 331.723C609.102 331.168 608.414 330.891 607.539 330.891ZM625.949 329.039V331.195H621.73V342H618.965V331.195H614.746V329.039H625.949ZM636.484 329.039H639.508L634.152 335.285L639.965 342H636.801L631.199 335.426V342H628.445V329.039H631.199V335.332L636.484 329.039ZM644.746 329.039V335.684C644.746 336.457 644.684 337.594 644.559 339.094L651.062 329.039H654.426V342H651.777V335.473C651.777 335.113 651.797 334.531 651.836 333.727C651.883 332.922 651.922 332.336 651.953 331.969L645.473 342H642.109V329.039H644.746Z" fill="#626262"/>
<path d="M5.58594 88H4.32031V79.8594C4.32031 79.1823 4.34115 78.5417 4.38281 77.9375C4.27344 78.0469 4.15104 78.1615 4.01562 78.2812C3.88021 78.401 3.26042 78.9089 2.15625 79.8047L1.46875 78.9141L4.49219 76.5781H5.58594V88ZM10.0703 83.1172C10.0703 80.8724 10.5052 79.1953 11.375 78.0859C12.25 76.9714 13.5417 76.4141 15.25 76.4141C15.8385 76.4141 16.3021 76.4635 16.6406 76.5625V77.6797C16.2396 77.5495 15.7812 77.4844 15.2656 77.4844C14.0417 77.4844 13.1068 77.8672 12.4609 78.6328C11.8151 79.3932 11.4609 80.5911 11.3984 82.2266H11.4922C12.0651 81.3307 12.9714 80.8828 14.2109 80.8828C15.237 80.8828 16.0443 81.1927 16.6328 81.8125C17.2266 82.4323 17.5234 83.2734 17.5234 84.3359C17.5234 85.5234 17.1979 86.4583 16.5469 87.1406C15.901 87.8177 15.026 88.1562 13.9219 88.1562C12.7396 88.1562 11.8021 87.7135 11.1094 86.8281C10.4167 85.9375 10.0703 84.7005 10.0703 83.1172ZM13.9062 87.0547C14.6458 87.0547 15.2188 86.8229 15.625 86.3594C16.0365 85.8906 16.2422 85.2161 16.2422 84.3359C16.2422 83.5807 16.0521 82.987 15.6719 82.5547C15.2917 82.1224 14.724 81.9062 13.9688 81.9062C13.5 81.9062 13.0703 82.0026 12.6797 82.1953C12.2891 82.388 11.9766 82.6536 11.7422 82.9922C11.513 83.3307 11.3984 83.6823 11.3984 84.0469C11.3984 84.5833 11.5026 85.0833 11.7109 85.5469C11.9193 86.0104 12.2135 86.3776 12.5938 86.6484C12.9792 86.9193 13.4167 87.0547 13.9062 87.0547Z" fill="#626262"/>
<path d="M7.85938 145.266C7.85938 145.995 7.65365 146.591 7.24219 147.055C6.83594 147.518 6.25781 147.828 5.50781 147.984V148.047C6.42448 148.161 7.10417 148.453 7.54688 148.922C7.98958 149.391 8.21094 150.005 8.21094 150.766C8.21094 151.854 7.83333 152.693 7.07812 153.281C6.32292 153.865 5.25 154.156 3.85938 154.156C3.25521 154.156 2.70052 154.109 2.19531 154.016C1.69531 153.927 1.20833 153.768 0.734375 153.539V152.305C1.22917 152.549 1.75521 152.737 2.3125 152.867C2.875 152.992 3.40625 153.055 3.90625 153.055C5.88021 153.055 6.86719 152.281 6.86719 150.734C6.86719 149.349 5.77865 148.656 3.60156 148.656H2.47656V147.539H3.61719C4.50781 147.539 5.21354 147.344 5.73438 146.953C6.25521 146.557 6.51562 146.01 6.51562 145.312C6.51562 144.755 6.32292 144.318 5.9375 144C5.55729 143.682 5.03906 143.523 4.38281 143.523C3.88281 143.523 3.41146 143.591 2.96875 143.727C2.52604 143.862 2.02083 144.112 1.45312 144.477L0.796875 143.602C1.26562 143.232 1.80469 142.943 2.41406 142.734C3.02865 142.521 3.67448 142.414 4.35156 142.414C5.46094 142.414 6.32292 142.669 6.9375 143.18C7.55208 143.685 7.85938 144.38 7.85938 145.266ZM17.4453 154H9.9375V152.883L12.9453 149.859C13.862 148.932 14.4661 148.271 14.7578 147.875C15.0495 147.479 15.2682 147.094 15.4141 146.719C15.5599 146.344 15.6328 145.94 15.6328 145.508C15.6328 144.898 15.4479 144.417 15.0781 144.062C14.7083 143.703 14.1953 143.523 13.5391 143.523C13.0651 143.523 12.6146 143.602 12.1875 143.758C11.7656 143.914 11.2943 144.198 10.7734 144.609L10.0859 143.727C11.138 142.852 12.2839 142.414 13.5234 142.414C14.5964 142.414 15.4375 142.69 16.0469 143.242C16.6562 143.789 16.9609 144.526 16.9609 145.453C16.9609 146.177 16.7578 146.893 16.3516 147.602C15.9453 148.31 15.1849 149.206 14.0703 150.289L11.5703 152.734V152.797H17.4453V154Z" fill="#626262"/>
<path d="M7.85938 235.266C7.85938 235.995 7.65365 236.591 7.24219 237.055C6.83594 237.518 6.25781 237.828 5.50781 237.984V238.047C6.42448 238.161 7.10417 238.453 7.54688 238.922C7.98958 239.391 8.21094 240.005 8.21094 240.766C8.21094 241.854 7.83333 242.693 7.07812 243.281C6.32292 243.865 5.25 244.156 3.85938 244.156C3.25521 244.156 2.70052 244.109 2.19531 244.016C1.69531 243.927 1.20833 243.768 0.734375 243.539V242.305C1.22917 242.549 1.75521 242.737 2.3125 242.867C2.875 242.992 3.40625 243.055 3.90625 243.055C5.88021 243.055 6.86719 242.281 6.86719 240.734C6.86719 239.349 5.77865 238.656 3.60156 238.656H2.47656V237.539H3.61719C4.50781 237.539 5.21354 237.344 5.73438 236.953C6.25521 236.557 6.51562 236.01 6.51562 235.312C6.51562 234.755 6.32292 234.318 5.9375 234C5.55729 233.682 5.03906 233.523 4.38281 233.523C3.88281 233.523 3.41146 233.591 2.96875 233.727C2.52604 233.862 2.02083 234.112 1.45312 234.477L0.796875 233.602C1.26562 233.232 1.80469 232.943 2.41406 232.734C3.02865 232.521 3.67448 232.414 4.35156 232.414C5.46094 232.414 6.32292 232.669 6.9375 233.18C7.55208 233.685 7.85938 234.38 7.85938 235.266ZM17.4453 244H9.9375V242.883L12.9453 239.859C13.862 238.932 14.4661 238.271 14.7578 237.875C15.0495 237.479 15.2682 237.094 15.4141 236.719C15.5599 236.344 15.6328 235.94 15.6328 235.508C15.6328 234.898 15.4479 234.417 15.0781 234.062C14.7083 233.703 14.1953 233.523 13.5391 233.523C13.0651 233.523 12.6146 233.602 12.1875 233.758C11.7656 233.914 11.2943 234.198 10.7734 234.609L10.0859 233.727C11.138 232.852 12.2839 232.414 13.5234 232.414C14.5964 232.414 15.4375 232.69 16.0469 233.242C16.6562 233.789 16.9609 234.526 16.9609 235.453C16.9609 236.177 16.7578 236.893 16.3516 237.602C15.9453 238.31 15.1849 239.206 14.0703 240.289L11.5703 242.734V242.797H17.4453V244Z" fill="#626262"/>
<line x1="37" y1="0.5" x2="831" y2="0.5" stroke="#B1B1B1"/>
<line x1="37" y1="16.5" x2="831" y2="16.5" stroke="#B1B1B1"/>
<line x1="37" y1="32.5" x2="831" y2="32.5" stroke="#B1B1B1"/>
<line x1="37" y1="48.5" x2="831" y2="48.5" stroke="#B1B1B1"/>
<line x1="37" y1="64.5" x2="831" y2="64.5" stroke="#B1B1B1"/>
<line x1="37" y1="80.5" x2="831" y2="80.5" stroke="#B1B1B1"/>
<line x1="37" y1="96.5" x2="831" y2="96.5" stroke="#B1B1B1"/>
<line x1="37" y1="112.5" x2="831" y2="112.5" stroke="#B1B1B1"/>
<line x1="37" y1="128.5" x2="831" y2="128.5" stroke="#B1B1B1"/>
<line x1="37" y1="144.5" x2="831" y2="144.5" stroke="#B1B1B1"/>
<line x1="37" y1="160.5" x2="831" y2="160.5" stroke="#B1B1B1"/>
<line x1="37" y1="176.5" x2="831" y2="176.5" stroke="#B1B1B1"/>
<line x1="37" y1="192.5" x2="831" y2="192.5" stroke="#B1B1B1"/>
<line x1="37" y1="208.5" x2="831" y2="208.5" stroke="#B1B1B1"/>
<line x1="37" y1="224.5" x2="831" y2="224.5" stroke="#B1B1B1"/>
<line x1="37" y1="240.5" x2="831" y2="240.5" stroke="#B1B1B1"/>
<line x1="37" y1="256.5" x2="831" y2="256.5" stroke="#B1B1B1"/>
<line x1="37" y1="272.5" x2="831" y2="272.5" stroke="#B1B1B1"/>
<line x1="37" y1="288.5" x2="831" y2="288.5" stroke="#B1B1B1"/>
<rect x="37" y="1" width="291" height="47" fill="#00D29D"/>
<rect x="541" y="1" width="291" height="47" fill="#00D29D"/>
<rect x="37" y="65" width="211" height="31" fill="#00D29D"/>
<rect x="541" y="68" width="211" height="40" fill="#00D29D"/>
<rect x="38" y="114" width="209" height="62" rx="9" stroke="#8F8F8F" stroke-width="2"/>
<rect x="542" y="118" width="209" height="68" rx="9" stroke="#8F8F8F" stroke-width="2"/>
<rect x="37" y="209" width="211" height="63" rx="31.5" fill="#00D29D"/>
<rect x="541" y="219" width="211" height="70" rx="35" fill="#00D29D"/>
<line x1="24.5" y1="1" x2="24.5" y2="48" stroke="#626262"/>
<line x1="21" y1="0.5" x2="28" y2="0.5" stroke="#626262"/>
<line x1="21" y1="48.5" x2="28" y2="48.5" stroke="#626262"/>
<path d="M859.289 28H851.781V26.8828L854.789 23.8594C855.706 22.9323 856.31 22.2708 856.602 21.875C856.893 21.4792 857.112 21.0938 857.258 20.7188C857.404 20.3438 857.477 19.9401 857.477 19.5078C857.477 18.8984 857.292 18.4167 856.922 18.0625C856.552 17.7031 856.039 17.5234 855.383 17.5234C854.909 17.5234 854.458 17.6016 854.031 17.7578C853.609 17.9141 853.138 18.1979 852.617 18.6094L851.93 17.7266C852.982 16.8516 854.128 16.4141 855.367 16.4141C856.44 16.4141 857.281 16.6901 857.891 17.2422C858.5 17.7891 858.805 18.526 858.805 19.4531C858.805 20.1771 858.602 20.8932 858.195 21.6016C857.789 22.3099 857.029 23.2057 855.914 24.2891L853.414 26.7344V26.7969H859.289V28ZM868.984 25.375H867.289V28H866.047V25.375H860.492V24.2422L865.914 16.5156H867.289V24.1953H868.984V25.375ZM866.047 24.1953V20.3984C866.047 19.6536 866.073 18.8125 866.125 17.875H866.062C865.812 18.375 865.578 18.7891 865.359 19.1172L861.789 24.1953H866.047Z" fill="#626262"/>
<path d="M856.586 92H855.32V83.8594C855.32 83.1823 855.341 82.5417 855.383 81.9375C855.273 82.0469 855.151 82.1615 855.016 82.2812C854.88 82.401 854.26 82.9089 853.156 83.8047L852.469 82.9141L855.492 80.5781H856.586V92ZM868.445 85.4531C868.445 89.9219 866.716 92.1562 863.258 92.1562C862.654 92.1562 862.174 92.1042 861.82 92V90.8828C862.237 91.0182 862.711 91.0859 863.242 91.0859C864.492 91.0859 865.435 90.7005 866.07 89.9297C866.711 89.1536 867.06 87.9661 867.117 86.3672H867.023C866.737 86.7995 866.357 87.1302 865.883 87.3594C865.409 87.5833 864.875 87.6953 864.281 87.6953C863.271 87.6953 862.469 87.3932 861.875 86.7891C861.281 86.1849 860.984 85.3411 860.984 84.2578C860.984 83.0703 861.315 82.1328 861.977 81.4453C862.643 80.7578 863.518 80.4141 864.602 80.4141C865.378 80.4141 866.055 80.6146 866.633 81.0156C867.216 81.4115 867.664 81.9922 867.977 82.7578C868.289 83.5182 868.445 84.4167 868.445 85.4531ZM864.602 81.5234C863.857 81.5234 863.281 81.763 862.875 82.2422C862.469 82.7214 862.266 83.388 862.266 84.2422C862.266 84.9922 862.453 85.5833 862.828 86.0156C863.203 86.4427 863.773 86.6562 864.539 86.6562C865.013 86.6562 865.448 86.5599 865.844 86.3672C866.245 86.1745 866.56 85.9115 866.789 85.5781C867.018 85.2448 867.133 84.8958 867.133 84.5312C867.133 83.9844 867.026 83.4792 866.812 83.0156C866.599 82.5521 866.299 82.1875 865.914 81.9219C865.534 81.6562 865.096 81.5234 864.602 81.5234Z" fill="#626262"/>
<path d="M858.859 147.266C858.859 147.995 858.654 148.591 858.242 149.055C857.836 149.518 857.258 149.828 856.508 149.984V150.047C857.424 150.161 858.104 150.453 858.547 150.922C858.99 151.391 859.211 152.005 859.211 152.766C859.211 153.854 858.833 154.693 858.078 155.281C857.323 155.865 856.25 156.156 854.859 156.156C854.255 156.156 853.701 156.109 853.195 156.016C852.695 155.927 852.208 155.768 851.734 155.539V154.305C852.229 154.549 852.755 154.737 853.312 154.867C853.875 154.992 854.406 155.055 854.906 155.055C856.88 155.055 857.867 154.281 857.867 152.734C857.867 151.349 856.779 150.656 854.602 150.656H853.477V149.539H854.617C855.508 149.539 856.214 149.344 856.734 148.953C857.255 148.557 857.516 148.01 857.516 147.312C857.516 146.755 857.323 146.318 856.938 146C856.557 145.682 856.039 145.523 855.383 145.523C854.883 145.523 854.411 145.591 853.969 145.727C853.526 145.862 853.021 146.112 852.453 146.477L851.797 145.602C852.266 145.232 852.805 144.943 853.414 144.734C854.029 144.521 854.674 144.414 855.352 144.414C856.461 144.414 857.323 144.669 857.938 145.18C858.552 145.685 858.859 146.38 858.859 147.266ZM864.508 149.023C865.711 149.023 866.656 149.323 867.344 149.922C868.036 150.516 868.383 151.331 868.383 152.367C868.383 153.549 868.005 154.477 867.25 155.148C866.5 155.82 865.464 156.156 864.141 156.156C862.854 156.156 861.872 155.951 861.195 155.539V154.289C861.56 154.523 862.013 154.708 862.555 154.844C863.096 154.974 863.63 155.039 864.156 155.039C865.073 155.039 865.784 154.823 866.289 154.391C866.799 153.958 867.055 153.333 867.055 152.516C867.055 150.922 866.078 150.125 864.125 150.125C863.63 150.125 862.969 150.201 862.141 150.352L861.469 149.922L861.898 144.578H867.578V145.773H863.008L862.719 149.203C863.318 149.083 863.914 149.023 864.508 149.023Z" fill="#626262"/>
<path d="M858.859 249.266C858.859 249.995 858.654 250.591 858.242 251.055C857.836 251.518 857.258 251.828 856.508 251.984V252.047C857.424 252.161 858.104 252.453 858.547 252.922C858.99 253.391 859.211 254.005 859.211 254.766C859.211 255.854 858.833 256.693 858.078 257.281C857.323 257.865 856.25 258.156 854.859 258.156C854.255 258.156 853.701 258.109 853.195 258.016C852.695 257.927 852.208 257.768 851.734 257.539V256.305C852.229 256.549 852.755 256.737 853.312 256.867C853.875 256.992 854.406 257.055 854.906 257.055C856.88 257.055 857.867 256.281 857.867 254.734C857.867 253.349 856.779 252.656 854.602 252.656H853.477V251.539H854.617C855.508 251.539 856.214 251.344 856.734 250.953C857.255 250.557 857.516 250.01 857.516 249.312C857.516 248.755 857.323 248.318 856.938 248C856.557 247.682 856.039 247.523 855.383 247.523C854.883 247.523 854.411 247.591 853.969 247.727C853.526 247.862 853.021 248.112 852.453 248.477L851.797 247.602C852.266 247.232 852.805 246.943 853.414 246.734C854.029 246.521 854.674 246.414 855.352 246.414C856.461 246.414 857.323 246.669 857.938 247.18C858.552 247.685 858.859 248.38 858.859 249.266ZM864.508 251.023C865.711 251.023 866.656 251.323 867.344 251.922C868.036 252.516 868.383 253.331 868.383 254.367C868.383 255.549 868.005 256.477 867.25 257.148C866.5 257.82 865.464 258.156 864.141 258.156C862.854 258.156 861.872 257.951 861.195 257.539V256.289C861.56 256.523 862.013 256.708 862.555 256.844C863.096 256.974 863.63 257.039 864.156 257.039C865.073 257.039 865.784 256.823 866.289 256.391C866.799 255.958 867.055 255.333 867.055 254.516C867.055 252.922 866.078 252.125 864.125 252.125C863.63 252.125 862.969 252.201 862.141 252.352L861.469 251.922L861.898 246.578H867.578V247.773H863.008L862.719 251.203C863.318 251.083 863.914 251.023 864.508 251.023Z" fill="#626262"/>
<line x1="844.5" y1="1" x2="844.5" y2="48" stroke="#626262"/>
<line x1="841" y1="0.5" x2="848" y2="0.5" stroke="#626262"/>
<line x1="841" y1="48.5" x2="848" y2="48.5" stroke="#626262"/>
<line x1="844.5" y1="68" x2="844.5" y2="107.167" stroke="#626262"/>
<line x1="841" y1="67.5" x2="848" y2="67.5" stroke="#626262"/>
<line x1="841" y1="107.5" x2="848" y2="107.5" stroke="#626262"/>
<line x1="844.5" y1="117" x2="844.5" y2="185.542" stroke="#626262"/>
<line x1="841" y1="116.5" x2="848" y2="116.5" stroke="#626262"/>
<line x1="841" y1="186.5" x2="848" y2="186.5" stroke="#626262"/>
<line x1="844.5" y1="219" x2="844.5" y2="287.542" stroke="#626262"/>
<line x1="841" y1="218.5" x2="848" y2="218.5" stroke="#626262"/>
<line x1="841" y1="288.5" x2="848" y2="288.5" stroke="#626262"/>
<line x1="24.5" y1="65" x2="24.5" y2="96.3333" stroke="#626262"/>
<line x1="21" y1="64.5" x2="28" y2="64.5" stroke="#626262"/>
<line x1="21" y1="96.5" x2="28" y2="96.5" stroke="#626262"/>
<line x1="24.5" y1="113" x2="24.5" y2="175.667" stroke="#626262"/>
<line x1="21" y1="112.5" x2="28" y2="112.5" stroke="#626262"/>
<line x1="21" y1="176.5" x2="28" y2="176.5" stroke="#626262"/>
<line x1="24.5" y1="209" x2="24.5" y2="271.667" stroke="#626262"/>
<line x1="21" y1="208.5" x2="28" y2="208.5" stroke="#626262"/>
<line x1="21" y1="272.5" x2="28" y2="272.5" stroke="#626262"/>
</svg>
