<svg width="37" height="37" viewBox="0 0 37 37" fill="none" xmlns="http://www.w3.org/2000/svg">
<circle cx="18.5" cy="18.5" r="18.5" fill="#606262"/>
<path d="M22.376 15.1035C22.376 15.918 22.1387 16.5977 21.6641 17.1426C21.1895 17.6816 20.5215 18.0449 19.6602 18.2324V18.3027C20.6914 18.4316 21.4648 18.7539 21.9805 19.2695C22.4961 19.7793 22.7539 20.459 22.7539 21.3086C22.7539 22.5449 22.3174 23.5 21.4443 24.1738C20.5713 24.8418 19.3291 25.1758 17.7178 25.1758C16.2939 25.1758 15.0928 24.9443 14.1143 24.4814V22.6445C14.6592 22.9141 15.2363 23.1221 15.8457 23.2686C16.4551 23.415 17.041 23.4883 17.6035 23.4883C18.5996 23.4883 19.3438 23.3037 19.8359 22.9346C20.3281 22.5654 20.5742 21.9941 20.5742 21.2207C20.5742 20.5352 20.3018 20.0312 19.7568 19.709C19.2119 19.3867 18.3564 19.2256 17.1904 19.2256H16.0742V17.5469H17.208C19.2588 17.5469 20.2842 16.8379 20.2842 15.4199C20.2842 14.8691 20.1055 14.4443 19.748 14.1455C19.3906 13.8467 18.8633 13.6973 18.166 13.6973C17.6797 13.6973 17.2109 13.7676 16.7598 13.9082C16.3086 14.043 15.7754 14.3096 15.1602 14.708L14.1494 13.2666C15.3271 12.3994 16.6953 11.9658 18.2539 11.9658C19.5488 11.9658 20.5596 12.2441 21.2861 12.8008C22.0127 13.3574 22.376 14.125 22.376 15.1035Z" fill="white"/>
</svg>
