<svg width="37" height="37" viewBox="0 0 37 37" fill="none" xmlns="http://www.w3.org/2000/svg">
<circle cx="18.5" cy="18.5" r="18.5" fill="#8A8C8C"/>
<path d="M22.8594 25H14.1494V23.4355L17.4629 20.1045C18.4414 19.1025 19.0889 18.3936 19.4053 17.9775C19.7275 17.5557 19.9619 17.1602 20.1084 16.791C20.2549 16.4219 20.3281 16.0264 20.3281 15.6045C20.3281 15.0244 20.1523 14.5674 19.8008 14.2334C19.4551 13.8994 18.9746 13.7324 18.3594 13.7324C17.8672 13.7324 17.3896 13.8232 16.9268 14.0049C16.4697 14.1865 15.9395 14.5146 15.3359 14.9893L14.2197 13.627C14.9346 13.0234 15.6289 12.5957 16.3027 12.3438C16.9766 12.0918 17.6943 11.9658 18.4561 11.9658C19.6514 11.9658 20.6094 12.2793 21.3301 12.9062C22.0508 13.5273 22.4111 14.3652 22.4111 15.4199C22.4111 16 22.3057 16.5508 22.0947 17.0723C21.8896 17.5938 21.5703 18.1328 21.1367 18.6895C20.709 19.2402 19.9941 19.9873 18.9922 20.9307L16.7598 23.0928V23.1807H22.8594V25Z" fill="white"/>
</svg>
